<mxfile host="app.diagrams.net" agent="Mozilla/5.0 (Windows NT 10.0; Win64; x64) AppleWebKit/537.36 (KHTML, like Gecko) Chrome/135.0.0.0 Safari/537.36 Edg/135.0.0.0" version="26.2.12">
  <diagram name="Página-1" id="HFhLeTImkTpYcbtmZ-wR">
    <mxGraphModel dx="2046" dy="631" grid="1" gridSize="10" guides="1" tooltips="1" connect="1" arrows="1" fold="1" page="1" pageScale="1" pageWidth="827" pageHeight="1169" math="0" shadow="0">
      <root>
        <mxCell id="0" />
        <mxCell id="1" parent="0" />
        <mxCell id="_RJJTrnls7SccO1oR1Wn-64" style="edgeStyle=orthogonalEdgeStyle;rounded=0;orthogonalLoop=1;jettySize=auto;html=1;" parent="1" source="_RJJTrnls7SccO1oR1Wn-1" edge="1">
          <mxGeometry relative="1" as="geometry">
            <mxPoint x="50" y="450.0000000000001" as="targetPoint" />
          </mxGeometry>
        </mxCell>
        <mxCell id="_RJJTrnls7SccO1oR1Wn-1" value="" style="ellipse;whiteSpace=wrap;html=1;aspect=fixed;fillColor=#000000;" parent="1" vertex="1">
          <mxGeometry x="35" y="485" width="30" height="30" as="geometry" />
        </mxCell>
        <mxCell id="_RJJTrnls7SccO1oR1Wn-17" style="edgeStyle=orthogonalEdgeStyle;rounded=0;orthogonalLoop=1;jettySize=auto;html=1;" parent="1" edge="1">
          <mxGeometry relative="1" as="geometry">
            <mxPoint x="206" y="260" as="targetPoint" />
            <mxPoint x="156" y="260" as="sourcePoint" />
          </mxGeometry>
        </mxCell>
        <mxCell id="_RJJTrnls7SccO1oR1Wn-8" value="" style="line;strokeWidth=2;html=1;direction=south;" parent="1" vertex="1">
          <mxGeometry x="150" y="170" width="10" height="340" as="geometry" />
        </mxCell>
        <mxCell id="_RJJTrnls7SccO1oR1Wn-12" value="Tela de pedidos" style="rounded=1;whiteSpace=wrap;html=1;fillColor=#FFFFFF;" parent="1" vertex="1">
          <mxGeometry x="205" y="181" width="97" height="40" as="geometry" />
        </mxCell>
        <mxCell id="_RJJTrnls7SccO1oR1Wn-18" style="edgeStyle=orthogonalEdgeStyle;rounded=0;orthogonalLoop=1;jettySize=auto;html=1;" parent="1" edge="1">
          <mxGeometry relative="1" as="geometry">
            <mxPoint x="204" y="200.5" as="targetPoint" />
            <mxPoint x="154" y="200.5" as="sourcePoint" />
          </mxGeometry>
        </mxCell>
        <mxCell id="_RJJTrnls7SccO1oR1Wn-19" value="Tela de pacientes" style="rounded=1;whiteSpace=wrap;html=1;fillColor=#FFFFFF;" parent="1" vertex="1">
          <mxGeometry x="206" y="241" width="97" height="40" as="geometry" />
        </mxCell>
        <mxCell id="_RJJTrnls7SccO1oR1Wn-20" value="Tela protéticos" style="rounded=1;whiteSpace=wrap;html=1;fillColor=#FFFFFF;" parent="1" vertex="1">
          <mxGeometry x="206" y="301" width="97" height="40" as="geometry" />
        </mxCell>
        <mxCell id="_RJJTrnls7SccO1oR1Wn-21" style="edgeStyle=orthogonalEdgeStyle;rounded=0;orthogonalLoop=1;jettySize=auto;html=1;" parent="1" edge="1">
          <mxGeometry relative="1" as="geometry">
            <mxPoint x="205" y="321" as="targetPoint" />
            <mxPoint x="155" y="321" as="sourcePoint" />
          </mxGeometry>
        </mxCell>
        <mxCell id="_RJJTrnls7SccO1oR1Wn-22" value="Tela de dentistas" style="rounded=1;whiteSpace=wrap;html=1;fillColor=#FFFFFF;" parent="1" vertex="1">
          <mxGeometry x="206" y="361" width="97" height="40" as="geometry" />
        </mxCell>
        <mxCell id="_RJJTrnls7SccO1oR1Wn-23" style="edgeStyle=orthogonalEdgeStyle;rounded=0;orthogonalLoop=1;jettySize=auto;html=1;" parent="1" edge="1">
          <mxGeometry relative="1" as="geometry">
            <mxPoint x="206" y="380.5" as="targetPoint" />
            <mxPoint x="156" y="380.5" as="sourcePoint" />
          </mxGeometry>
        </mxCell>
        <mxCell id="_RJJTrnls7SccO1oR1Wn-33" value="" style="edgeStyle=orthogonalEdgeStyle;rounded=0;orthogonalLoop=1;jettySize=auto;html=1;" parent="1" source="_RJJTrnls7SccO1oR1Wn-31" target="_RJJTrnls7SccO1oR1Wn-32" edge="1">
          <mxGeometry relative="1" as="geometry" />
        </mxCell>
        <mxCell id="_RJJTrnls7SccO1oR1Wn-31" value="Acesso ao sistema" style="rounded=1;whiteSpace=wrap;html=1;fillColor=#FFFFFF;" parent="1" vertex="1">
          <mxGeometry x="-5" y="410" width="110" height="40" as="geometry" />
        </mxCell>
        <mxCell id="_RJJTrnls7SccO1oR1Wn-32" value="" style="rhombus;whiteSpace=wrap;html=1;" parent="1" vertex="1">
          <mxGeometry x="25" y="330" width="50" height="50" as="geometry" />
        </mxCell>
        <mxCell id="_RJJTrnls7SccO1oR1Wn-34" value="Tem acesso?" style="text;html=1;align=center;verticalAlign=middle;resizable=0;points=[];autosize=1;strokeColor=none;fillColor=none;" parent="1" vertex="1">
          <mxGeometry x="60" y="318" width="90" height="30" as="geometry" />
        </mxCell>
        <mxCell id="_RJJTrnls7SccO1oR1Wn-37" value="Sim" style="text;html=1;align=center;verticalAlign=middle;resizable=0;points=[];autosize=1;strokeColor=none;fillColor=none;" parent="1" vertex="1">
          <mxGeometry x="70" y="355" width="40" height="30" as="geometry" />
        </mxCell>
        <mxCell id="_RJJTrnls7SccO1oR1Wn-38" value="Tela de serviços" style="rounded=1;whiteSpace=wrap;html=1;fillColor=#FFFFFF;" parent="1" vertex="1">
          <mxGeometry x="205" y="418" width="97" height="40" as="geometry" />
        </mxCell>
        <mxCell id="_RJJTrnls7SccO1oR1Wn-39" style="edgeStyle=orthogonalEdgeStyle;rounded=0;orthogonalLoop=1;jettySize=auto;html=1;" parent="1" edge="1">
          <mxGeometry relative="1" as="geometry">
            <mxPoint x="205" y="437.5" as="targetPoint" />
            <mxPoint x="155" y="437.5" as="sourcePoint" />
          </mxGeometry>
        </mxCell>
        <mxCell id="_RJJTrnls7SccO1oR1Wn-40" value="Tela de materiais" style="rounded=1;whiteSpace=wrap;html=1;fillColor=#FFFFFF;" parent="1" vertex="1">
          <mxGeometry x="205" y="475" width="97" height="40" as="geometry" />
        </mxCell>
        <mxCell id="_RJJTrnls7SccO1oR1Wn-41" style="edgeStyle=orthogonalEdgeStyle;rounded=0;orthogonalLoop=1;jettySize=auto;html=1;" parent="1" edge="1">
          <mxGeometry relative="1" as="geometry">
            <mxPoint x="205" y="494.5" as="targetPoint" />
            <mxPoint x="155" y="494.5" as="sourcePoint" />
          </mxGeometry>
        </mxCell>
        <mxCell id="_RJJTrnls7SccO1oR1Wn-90" style="edgeStyle=orthogonalEdgeStyle;rounded=0;orthogonalLoop=1;jettySize=auto;html=1;entryX=0;entryY=0.5;entryDx=0;entryDy=0;exitX=0.501;exitY=0.3;exitDx=0;exitDy=0;exitPerimeter=0;" parent="1" source="_RJJTrnls7SccO1oR1Wn-42" target="_RJJTrnls7SccO1oR1Wn-53" edge="1">
          <mxGeometry relative="1" as="geometry" />
        </mxCell>
        <mxCell id="_RJJTrnls7SccO1oR1Wn-42" value="" style="line;strokeWidth=2;html=1;direction=south;" parent="1" vertex="1">
          <mxGeometry x="348" y="185" width="10" height="330" as="geometry" />
        </mxCell>
        <mxCell id="_RJJTrnls7SccO1oR1Wn-53" value="Filtrar" style="rounded=1;whiteSpace=wrap;html=1;fillColor=#FFFFFF;" parent="1" vertex="1">
          <mxGeometry x="414" y="334" width="70" height="32" as="geometry" />
        </mxCell>
        <mxCell id="_RJJTrnls7SccO1oR1Wn-61" style="edgeStyle=orthogonalEdgeStyle;rounded=0;orthogonalLoop=1;jettySize=auto;html=1;entryX=0.5;entryY=1;entryDx=0;entryDy=0;" parent="1" source="_RJJTrnls7SccO1oR1Wn-58" target="_RJJTrnls7SccO1oR1Wn-53" edge="1">
          <mxGeometry relative="1" as="geometry">
            <Array as="points">
              <mxPoint x="560" y="393" />
              <mxPoint x="449" y="393" />
            </Array>
          </mxGeometry>
        </mxCell>
        <mxCell id="_RJJTrnls7SccO1oR1Wn-58" value="" style="rhombus;whiteSpace=wrap;html=1;" parent="1" vertex="1">
          <mxGeometry x="534" y="325" width="50" height="50" as="geometry" />
        </mxCell>
        <mxCell id="_RJJTrnls7SccO1oR1Wn-60" value="Filtro selecionado?" style="text;html=1;align=center;verticalAlign=middle;resizable=0;points=[];autosize=1;strokeColor=none;fillColor=none;" parent="1" vertex="1">
          <mxGeometry x="449" y="295" width="120" height="30" as="geometry" />
        </mxCell>
        <mxCell id="_RJJTrnls7SccO1oR1Wn-62" value="Não" style="text;html=1;align=center;verticalAlign=middle;resizable=0;points=[];autosize=1;strokeColor=none;fillColor=none;" parent="1" vertex="1">
          <mxGeometry x="484" y="369" width="50" height="30" as="geometry" />
        </mxCell>
        <mxCell id="_RJJTrnls7SccO1oR1Wn-65" value="Exportar dados via PDF" style="rounded=1;whiteSpace=wrap;html=1;fillColor=#FFFFFF;" parent="1" vertex="1">
          <mxGeometry x="634" y="329" width="97" height="40" as="geometry" />
        </mxCell>
        <mxCell id="_RJJTrnls7SccO1oR1Wn-67" value="Sim" style="text;html=1;align=center;verticalAlign=middle;resizable=0;points=[];autosize=1;strokeColor=none;fillColor=none;" parent="1" vertex="1">
          <mxGeometry x="584" y="323" width="40" height="30" as="geometry" />
        </mxCell>
        <mxCell id="_RJJTrnls7SccO1oR1Wn-68" value="" style="ellipse;html=1;shape=endState;fillColor=#000000;strokeColor=#ff0000;" parent="1" vertex="1">
          <mxGeometry x="833" y="325" width="30" height="30" as="geometry" />
        </mxCell>
        <mxCell id="_RJJTrnls7SccO1oR1Wn-70" value="" style="line;strokeWidth=2;html=1;direction=south;" parent="1" vertex="1">
          <mxGeometry x="776" y="290.5" width="10" height="105" as="geometry" />
        </mxCell>
        <mxCell id="_RJJTrnls7SccO1oR1Wn-73" style="edgeStyle=orthogonalEdgeStyle;rounded=0;orthogonalLoop=1;jettySize=auto;html=1;entryX=0.184;entryY=0.6;entryDx=0;entryDy=0;entryPerimeter=0;" parent="1" source="_RJJTrnls7SccO1oR1Wn-32" target="_RJJTrnls7SccO1oR1Wn-70" edge="1">
          <mxGeometry relative="1" as="geometry">
            <Array as="points">
              <mxPoint x="50" y="140" />
              <mxPoint x="730" y="140" />
              <mxPoint x="730" y="310" />
            </Array>
          </mxGeometry>
        </mxCell>
        <mxCell id="_RJJTrnls7SccO1oR1Wn-74" value="Não" style="text;html=1;align=center;verticalAlign=middle;resizable=0;points=[];autosize=1;strokeColor=none;fillColor=none;" parent="1" vertex="1">
          <mxGeometry x="-5" y="318" width="50" height="30" as="geometry" />
        </mxCell>
        <mxCell id="_RJJTrnls7SccO1oR1Wn-81" style="edgeStyle=orthogonalEdgeStyle;rounded=0;orthogonalLoop=1;jettySize=auto;html=1;entryX=0.543;entryY=0.718;entryDx=0;entryDy=0;entryPerimeter=0;" parent="1" source="_RJJTrnls7SccO1oR1Wn-32" target="_RJJTrnls7SccO1oR1Wn-8" edge="1">
          <mxGeometry relative="1" as="geometry" />
        </mxCell>
        <mxCell id="_RJJTrnls7SccO1oR1Wn-84" style="edgeStyle=orthogonalEdgeStyle;rounded=0;orthogonalLoop=1;jettySize=auto;html=1;" parent="1" edge="1">
          <mxGeometry relative="1" as="geometry">
            <mxPoint x="352" y="200.55" as="targetPoint" />
            <mxPoint x="302" y="200.55" as="sourcePoint" />
          </mxGeometry>
        </mxCell>
        <mxCell id="_RJJTrnls7SccO1oR1Wn-85" style="edgeStyle=orthogonalEdgeStyle;rounded=0;orthogonalLoop=1;jettySize=auto;html=1;" parent="1" edge="1">
          <mxGeometry relative="1" as="geometry">
            <mxPoint x="353" y="260.55" as="targetPoint" />
            <mxPoint x="303" y="260.55" as="sourcePoint" />
          </mxGeometry>
        </mxCell>
        <mxCell id="_RJJTrnls7SccO1oR1Wn-86" style="edgeStyle=orthogonalEdgeStyle;rounded=0;orthogonalLoop=1;jettySize=auto;html=1;" parent="1" edge="1">
          <mxGeometry relative="1" as="geometry">
            <mxPoint x="353" y="320.55" as="targetPoint" />
            <mxPoint x="303" y="320.55" as="sourcePoint" />
          </mxGeometry>
        </mxCell>
        <mxCell id="_RJJTrnls7SccO1oR1Wn-87" style="edgeStyle=orthogonalEdgeStyle;rounded=0;orthogonalLoop=1;jettySize=auto;html=1;" parent="1" edge="1">
          <mxGeometry relative="1" as="geometry">
            <mxPoint x="353" y="382.55" as="targetPoint" />
            <mxPoint x="303" y="382.55" as="sourcePoint" />
          </mxGeometry>
        </mxCell>
        <mxCell id="_RJJTrnls7SccO1oR1Wn-88" style="edgeStyle=orthogonalEdgeStyle;rounded=0;orthogonalLoop=1;jettySize=auto;html=1;" parent="1" edge="1">
          <mxGeometry relative="1" as="geometry">
            <mxPoint x="353" y="437.55" as="targetPoint" />
            <mxPoint x="303" y="437.55" as="sourcePoint" />
          </mxGeometry>
        </mxCell>
        <mxCell id="_RJJTrnls7SccO1oR1Wn-89" style="edgeStyle=orthogonalEdgeStyle;rounded=0;orthogonalLoop=1;jettySize=auto;html=1;" parent="1" edge="1">
          <mxGeometry relative="1" as="geometry">
            <mxPoint x="353" y="494.55" as="targetPoint" />
            <mxPoint x="303" y="494.55" as="sourcePoint" />
          </mxGeometry>
        </mxCell>
        <mxCell id="_RJJTrnls7SccO1oR1Wn-92" style="edgeStyle=orthogonalEdgeStyle;rounded=0;orthogonalLoop=1;jettySize=auto;html=1;" parent="1" edge="1">
          <mxGeometry relative="1" as="geometry">
            <mxPoint x="832" y="340.09000000000003" as="targetPoint" />
            <mxPoint x="782" y="340.09000000000003" as="sourcePoint" />
          </mxGeometry>
        </mxCell>
        <mxCell id="_RJJTrnls7SccO1oR1Wn-93" style="edgeStyle=orthogonalEdgeStyle;rounded=0;orthogonalLoop=1;jettySize=auto;html=1;" parent="1" edge="1">
          <mxGeometry relative="1" as="geometry">
            <mxPoint x="781" y="347.09000000000003" as="targetPoint" />
            <mxPoint x="731" y="347.09000000000003" as="sourcePoint" />
          </mxGeometry>
        </mxCell>
        <mxCell id="_RJJTrnls7SccO1oR1Wn-95" style="edgeStyle=orthogonalEdgeStyle;rounded=0;orthogonalLoop=1;jettySize=auto;html=1;" parent="1" edge="1">
          <mxGeometry relative="1" as="geometry">
            <mxPoint x="634" y="349.55" as="targetPoint" />
            <mxPoint x="584" y="349.55" as="sourcePoint" />
          </mxGeometry>
        </mxCell>
        <mxCell id="_RJJTrnls7SccO1oR1Wn-96" style="edgeStyle=orthogonalEdgeStyle;rounded=0;orthogonalLoop=1;jettySize=auto;html=1;" parent="1" edge="1">
          <mxGeometry relative="1" as="geometry">
            <mxPoint x="534" y="349.55" as="targetPoint" />
            <mxPoint x="484" y="349.55" as="sourcePoint" />
          </mxGeometry>
        </mxCell>
      </root>
    </mxGraphModel>
  </diagram>
</mxfile>
